<?xml version="1.0" encoding="UTF-8"?>
<!DOCTYPE svg PUBLIC "-//W3C//DTD SVG 1.1//EN" "http://www.w3.org/Graphics/SVG/1.1/DTD/svg11.dtd">
<!-- Creator: CorelDRAW -->
<svg xmlns="http://www.w3.org/2000/svg" xml:space="preserve" width="66.7635mm" height="49.0508mm" style="shape-rendering:geometricPrecision; text-rendering:geometricPrecision; image-rendering:optimizeQuality; fill-rule:evenodd; clip-rule:evenodd"
viewBox="0 0 22.9705 16.8763"
 xmlns:xlink="http://www.w3.org/1999/xlink">
 <defs>
  <style type="text/css">
   <![CDATA[
    .fil2 {fill:#1973BE}
    .fil3 {fill:#7F4097}
    .fil0 {fill:#8DC73D}
    .fil1 {fill:#F05B29}
    .fil4 {fill:#FFCC00}
   ]]>
  </style>
 </defs>
 <g id="Layer_x0020_1">
  <metadata id="CorelCorpID_0Corel-Layer"/>
  <g id="_235553432">
   <path id="_234136112" class="fil0" d="M3.96042 16.8763l-1.37861 -2.62472c0,0 -0.680066,-0.535768 -1.3912,-1.45733 -0.462105,-0.598868 -0.813664,-1.39368 -0.932742,-1.9816 -0.0642357,-0.316878 -0.366181,-0.661968 -0.216894,-0.722591 0.703359,-0.285706 1.53822,1.74073 1.53822,1.74073 0,0 0.0333737,-0.720871 -0.17867,-1.70908 -0.216275,-1.00788 -0.329023,-2.09879 -0.496339,-2.81574 -0.129435,-0.554863 0.353382,-0.83472 0.623984,-0.199003 0.451095,1.05967 0.730161,2.83201 0.946436,3.10592 0.132015,-0.0065027 -0.233409,-2.46208 -0.410014,-3.66133 -0.0976438,-0.662622 0.368108,-0.829628 0.629042,-0.171066 0.434374,1.09686 0.795016,3.40129 0.952216,3.52072 0.269914,0.0714953 -0.0700159,-2.15893 -0.227801,-3.20907 -0.101497,-0.675731 0.505181,-0.696099 0.65292,-0.0492004 0.259626,1.13656 0.59818,3.59352 0.665512,3.58619 0,0 0.0920012,-1.51926 0.26637,-2.38051 0.169242,-0.835959 0.459834,-0.440636 0.560712,0.187099 0.0942032,0.586551 0.0456221,1.2521 0.0646486,2.23435 0.0308276,1.58718 0.0530882,3.33461 -0.112851,3.55922 -0.163703,0.221608 1.04608,1.65822 2.30412,3.04702l-3.85906 0z"/>
   <path id="_234135944" class="fil1" d="M12.1 16.8763l1.31671 -4.0132c0,0 -0.901777,-1.01243 -1.74568,-2.62837 -0.269914,-0.516845 -1.37207,-4.41207 -1.03156,-4.48466 1.16281,-0.247722 1.89487,3.10561 1.89487,3.10561 0,0 0.248926,-1.10236 0.192776,-2.68417 -0.0572169,-1.61339 0.0678827,-3.32629 0.00639949,-4.47771 -0.0475145,-0.890939 0.773615,-1.19024 1.01669,-0.135697 0.405129,1.75745 0.349701,4.56669 0.60802,5.04833 0.205368,0.0261484 0.314882,-3.8603 0.371239,-5.75782 0.0311029,-1.04855 0.79505,-1.17837 1.0168,-0.0913819 0.369209,1.81026 0.293723,5.46234 0.503495,5.68956 0.396458,0.184243 0.483608,-3.348 0.52813,-5.01049 0.0286945,-1.06971 0.96966,-0.93491 1.02024,0.10308 0.0888015,1.82365 -0.0625842,5.7048 0.043317,5.71192 0,0 0.558166,-2.3173 1.06307,-3.59754 0.490146,-1.24246 0.829869,-0.553315 0.81332,0.442218 -0.0153794,0.9303 -0.272769,1.94314 -0.512613,3.46291 -0.387513,2.45568 -0.832071,5.15616 -1.1494,5.45708 -0.367592,0.348566 -1.11953,2.29752 -1.68207,3.86034l-4.27376 0z"/>
   <path id="_234135776" class="fil2" d="M6.7368 16.8763l-0.410703 -0.887361c-0.256874,-0.211665 -1.38315,-1.45127 -2.07343,-2.37311 -0.234304,-0.312956 -1.13574,-1.14592 0.0550493,-0.752869 0.62192,0.2053 1.18563,0.982906 1.18563,0.982906 0,0 0.0431105,-0.63176 -0.123792,-1.50278 -0.17024,-0.888393 -0.248101,-1.84756 -0.381045,-2.4798 -0.102839,-0.489251 0.326133,-0.725447 0.551285,-0.162464 0.375264,0.938247 0.585863,2.49852 0.770244,2.74297 0.115982,-0.00313093 -0.1572,-2.1644 -0.288975,-3.21994 -0.0728028,-0.583248 0.339001,-0.720665 0.555138,-0.137864 0.359885,0.970589 0.631829,2.99919 0.767388,3.10698 0.235405,0.0679859 -0.0197145,-1.89531 -0.137864,-2.81959 -0.0759681,-0.594774 0.456634,-0.600967 0.573752,-0.0305868 0.205781,1.00214 0.455327,3.16406 0.514574,3.15887 0,0 0.109995,-1.33096 0.279616,-2.08314 0.164666,-0.730058 0.411941,-0.377673 0.488322,0.174954 0.0713577,0.516432 0.0158267,1.0993 0.0135903,1.96141 -0.00368142,1.39295 -0.0179254,2.92635 -0.167763,3.12023 -0.143782,0.185998 0.172614,0.709689 0.537866,1.20118l-2.70887 0z"/>
   <path id="_234135608" class="fil3" d="M13.1225 16.8763c1.05736,-0.85065 1.99657,-1.80995 2.8967,-3.02541 0,0 -0.264547,-0.940312 -0.35672,-2.25854 -0.0294858,-0.421678 0.367764,-3.32901 0.615073,-3.2785 0.844319,0.17258 0.358268,2.61264 0.358268,2.61264 0,0 0.485019,-0.660214 0.906422,-1.72738 0.429832,-1.08839 1.00957,-2.19014 1.30257,-2.97291 0.226803,-0.605715 0.859114,-0.566389 0.71485,0.20468 -0.240462,1.28502 -1.09187,3.13527 -1.05987,3.53014 0.128815,0.0769315 1.32848,-2.47323 1.91613,-3.71759 0.324722,-0.687566 0.869814,-0.552283 0.701982,0.234132 -0.279651,1.30969 -1.38865,3.71411 -1.31523,3.92584 0.209979,0.237435 1.29208,-2.084 1.80369,-3.17556 0.329229,-0.702361 0.915299,-0.339964 0.647931,0.364289 -0.469812,1.23734 -1.69573,3.77188 -1.62743,3.80728 0,0 1.0427,-1.37764 1.74936,-2.08176 0.685846,-0.683334 0.711754,-0.126992 0.412113,0.529609 -0.27996,0.613594 -0.744646,1.21188 -1.34465,2.15195 -0.905699,1.41914 -1.63706,2.31107 -2.44292,2.85455 -0.496407,0.674939 -0.822712,1.31833 -1.44845,2.02251l-4.42982 0z"/>
   <path id="_234135368" class="fil4" d="M10.3408 16.8763l0.233753 -0.785795c0,0 -0.359679,-0.652885 -0.61466,-1.62213 -0.165733,-0.629868 -0.17805,-1.37802 -0.0753832,-1.88424 0.0552902,-0.272838 -0.0684676,-0.64769 0.0701535,-0.645798 0.653608,0.00928958 0.636405,1.89628 0.636405,1.89628 0,0 0.26809,-0.56054 0.431243,-1.41535 0.166387,-0.871844 0.442666,-1.77476 0.550321,-2.39943 0.0834342,-0.483471 0.560127,-0.543509 0.561641,0.0514023 0.00244281,0.991542 -0.370413,2.49067 -0.290764,2.78044 0.106899,0.039085 0.640327,-2.0308 0.902328,-3.0411 0.144745,-0.558269 0.57007,-0.534564 0.55617,0.0752112 -0.0232239,1.01545 -0.509723,2.96396 -0.42505,3.11132 0.189989,0.147223 0.668161,-1.73557 0.895171,-2.62124 0.145984,-0.569933 0.633962,-0.382765 0.534219,0.179839 -0.175091,0.988411 -0.730333,3.05032 -0.674423,3.06711 0,0 0.58225,-1.17403 1.00923,-1.79857 0.414487,-0.606162 0.512406,-0.195219 0.382008,0.336386 -0.121969,0.49682 -0.383591,1.00826 -0.697819,1.79368 -0.507624,1.26902 -1.07584,2.66226 -1.28272,2.78474 -0.0418031,0.0247722 -0.0832621,0.0723211 -0.124171,0.137245l-2.57765 0z"/>
  </g>
 </g>
</svg>
